<svg width="80" height="80" viewBox="0 0 80 80" fill="none" xmlns="http://www.w3.org/2000/svg">
<path fill-rule="evenodd" clip-rule="evenodd" d="M24.0898 3.30631C32.2373 -0.232178 41.3284 -0.954012 49.9305 1.25457C58.5326 3.46316 66.1566 8.47658 71.6008 15.5047C77.045 22.5329 80 31.1761 80 40.0723C80 43.5667 77.1723 46.3995 73.6842 46.3995C70.1961 46.3995 67.3684 43.5667 67.3684 40.0723C67.3684 33.9854 65.3466 28.0716 61.6216 23.2629C57.8966 18.4542 52.6802 15.0239 46.7946 13.5128C40.9089 12.0017 34.6887 12.4955 29.1141 14.9166C23.5396 17.3377 18.9277 21.5483 16.0053 26.8848C13.0829 32.2213 12.0162 38.3804 12.9733 44.3912C13.9304 50.4021 16.8569 55.9229 21.2915 60.0838C25.7261 64.2447 31.4167 66.8089 37.4665 67.3723C40.9396 67.6958 43.4934 70.7787 43.1705 74.2581C42.8476 77.7375 39.7703 80.2959 36.2972 79.9724C27.4552 79.1489 19.1381 75.4012 12.6568 69.3199C6.1754 63.2387 1.89827 55.1697 0.499447 46.3846C-0.899378 37.5995 0.659641 28.5978 4.9308 20.7983C9.20197 12.9987 15.9424 6.8448 24.0898 3.30631Z" fill="#FF6A84"/>
</svg>
