<svg width="93" height="63" viewBox="0 0 93 63" fill="none" xmlns="http://www.w3.org/2000/svg">
<g clip-path="url(#clip0)">
<path d="M10.3228 7.77033C11.1782 8.58965 11.59 9.58228 11.59 10.7797C11.59 11.347 11.4791 11.8827 11.2574 12.4026C11.0356 12.9068 10.7347 13.3637 10.3545 13.7419C9.97433 14.12 9.51496 14.4194 9.00807 14.64C8.48535 14.8605 7.94678 14.9708 7.37653 14.9708H0.0583496V0.569824H7.37653C7.93094 0.569824 8.46951 0.680116 8.99224 0.900701C9.51496 1.12129 9.95849 1.42065 10.3545 1.7988C10.7347 2.17694 11.0356 2.63386 11.2574 3.13806C11.4791 3.64225 11.59 4.19371 11.59 4.76093C11.59 5.94263 11.1623 6.93526 10.3228 7.77033ZM7.37653 2.9805H2.45022V6.58863H7.37653C7.61414 6.58863 7.8359 6.54136 8.05766 6.44683C8.27942 6.35229 8.46951 6.22624 8.64375 6.05292C8.81799 5.87961 8.94471 5.69054 9.02392 5.46995C9.11896 5.24937 9.16648 5.01303 9.16648 4.76093C9.16648 4.52459 9.11896 4.304 9.02392 4.08342C8.92887 3.86284 8.80215 3.67376 8.64375 3.50045C8.48535 3.34289 8.27942 3.20108 8.05766 3.1223C7.85174 3.02777 7.61414 2.9805 7.37653 2.9805ZM7.37653 12.5602C7.61414 12.5602 7.8359 12.5129 8.05766 12.4184C8.27942 12.3238 8.46951 12.1978 8.64375 12.0245C8.81799 11.8669 8.94471 11.6621 9.02392 11.4415C9.11896 11.2209 9.16648 11.0003 9.16648 10.764C9.16648 10.5276 9.11896 10.3071 9.02392 10.0865C8.92887 9.86589 8.80215 9.67681 8.64375 9.5035C8.48535 9.34594 8.29527 9.20413 8.0735 9.1096C7.85174 9.01506 7.61414 8.96779 7.36069 8.96779H2.45022V12.5602H7.37653Z" fill="black"/>
<path d="M26.084 0.569824C28.0957 0.569824 29.7906 1.27885 31.2004 2.68113C32.626 4.09918 33.3546 5.78507 33.3546 7.77033C33.3546 9.77135 32.6418 11.473 31.2004 12.8438C29.7906 14.2618 28.0957 14.9551 26.084 14.9551C24.0881 14.9551 22.3774 14.2461 20.9834 12.8438C19.5737 11.4415 18.8608 9.75559 18.8608 7.77033C18.8608 5.78507 19.5737 4.09918 20.9834 2.68113C22.3615 1.27885 24.0723 0.569824 26.084 0.569824ZM26.084 2.9805C24.7692 2.9805 23.6287 3.45318 22.6625 4.39854C21.7279 5.3439 21.2686 6.46258 21.2686 7.78609C21.2686 9.09384 21.7279 10.2283 22.6625 11.1894C23.6287 12.119 24.7534 12.5759 26.084 12.5759C27.3987 12.5759 28.5392 12.119 29.4896 11.1894C30.44 10.2283 30.8994 9.1096 30.8994 7.78609C30.8994 6.47834 30.4242 5.3439 29.4896 4.39854C28.5392 3.45318 27.3987 2.9805 26.084 2.9805Z" fill="black"/>
<path d="M46.8503 0.569824C48.8462 0.569824 50.5569 1.27885 51.9667 2.68113C53.3923 4.09918 54.121 5.78507 54.121 7.77033C54.121 9.77135 53.4082 11.473 51.9667 12.8438C50.5569 14.2618 48.862 14.9551 46.8503 14.9551C44.8544 14.9551 43.1437 14.2461 41.7339 12.8438C40.3083 11.4415 39.6113 9.75559 39.6113 7.77033C39.6113 5.78507 40.3241 4.09918 41.7339 2.68113C43.1279 1.27885 44.8386 0.569824 46.8503 0.569824ZM46.8503 2.9805C45.5356 2.9805 44.3951 3.45318 43.4288 4.39854C42.4942 5.3439 42.0349 6.46258 42.0349 7.78609C42.0349 9.09384 42.4942 10.2283 43.4288 11.1894C44.3951 12.119 45.5197 12.5759 46.8503 12.5759C48.1809 12.5759 49.3055 12.119 50.2559 11.1894C51.2064 10.2283 51.6816 9.1096 51.6816 7.78609C51.6816 6.47834 51.2064 5.3439 50.2559 4.39854C49.3055 3.45318 48.1809 2.9805 46.8503 2.9805Z" fill="black"/>
<path d="M62.0569 0.569824H64.4646V12.5602H71.6878V14.9708H62.0569V0.569824Z" fill="black"/>
<path d="M31.533 31.562C32.3884 32.3813 32.8002 33.3739 32.8002 34.5714C32.8002 35.1386 32.6894 35.6743 32.4676 36.1942C32.2458 36.6984 31.9449 37.1554 31.5647 37.5335C31.1845 37.9116 30.741 38.211 30.2183 38.4316C29.7114 38.6522 29.157 38.7625 28.5867 38.7625H21.2686V24.3772H28.5867C29.1411 24.3772 29.6797 24.4875 30.2024 24.7081C30.7252 24.9287 31.1687 25.228 31.5647 25.6062C31.9449 25.9843 32.2458 26.4255 32.4676 26.9454C32.6894 27.4496 32.8002 28.0011 32.8002 28.5683C32.8002 29.7343 32.3884 30.7426 31.533 31.562ZM28.5867 26.7721H23.6604V30.3803H28.5867C28.8243 30.3803 29.0619 30.333 29.2837 30.2384C29.5055 30.1439 29.6955 30.0021 29.8698 29.8445C30.044 29.6712 30.1708 29.4822 30.25 29.2616C30.345 29.041 30.3925 28.8046 30.3925 28.5526C30.3925 28.3162 30.345 28.0956 30.25 27.875C30.1549 27.6545 30.0282 27.4654 29.8698 27.2921C29.7114 27.1345 29.5055 26.9927 29.2837 26.9139C29.0619 26.8194 28.8243 26.7721 28.5867 26.7721ZM28.5867 36.3518C28.8243 36.3518 29.0619 36.3045 29.2837 36.2257C29.5055 36.1312 29.6955 36.0052 29.8698 35.8476C30.044 35.6743 30.1708 35.4852 30.25 35.2646C30.345 35.044 30.3925 34.8077 30.3925 34.5871C30.3925 34.3508 30.345 34.1302 30.25 33.9096C30.1549 33.689 30.0282 33.4999 29.8698 33.3266C29.7114 33.1533 29.5213 33.0273 29.2995 32.9327C29.0778 32.8382 28.8402 32.7909 28.5867 32.7909H23.6604V36.3833H28.5867V36.3518Z" fill="black"/>
<path d="M46.8821 24.3772C48.8779 24.3772 50.5887 25.0862 51.9826 26.4885C53.4241 27.9065 54.1369 29.5924 54.1369 31.5619C54.1369 33.563 53.4241 35.2646 51.9826 36.6354C50.5728 38.0377 48.8779 38.7467 46.8821 38.7467C44.8862 38.7467 43.1755 38.0377 41.7815 36.6354C40.3559 35.2331 39.6589 33.5472 39.6589 31.5619C39.6589 29.5924 40.3717 27.8908 41.7815 26.4885C43.1596 25.0705 44.8545 24.3772 46.8821 24.3772ZM46.8821 26.7721C45.5673 26.7721 44.4268 27.2448 43.4606 28.1744C42.526 29.1198 42.0667 30.2384 42.0667 31.5619C42.0667 32.8697 42.526 34.0041 43.4606 34.9653C44.4268 35.8949 45.5673 36.3518 46.8821 36.3518C48.1968 36.3518 49.3373 35.8949 50.2877 34.9653C51.2223 34.0041 51.7133 32.8697 51.7133 31.5619C51.7133 30.2542 51.2381 29.1198 50.2877 28.1744C49.3215 27.2448 48.1968 26.7721 46.8821 26.7721Z" fill="black"/>
<path d="M46.8821 0.569824C48.8779 0.569824 50.5887 1.27885 51.9826 2.68113C53.4241 4.09918 54.1369 5.78507 54.1369 7.77033C54.1369 9.77135 53.4241 11.473 51.9826 12.8438C50.5728 14.2618 48.8779 14.9551 46.8821 14.9551C44.8862 14.9551 43.1755 14.2461 41.7815 12.8438C40.3559 11.4415 39.6589 9.75559 39.6589 7.77033C39.6589 5.78507 40.3717 4.09918 41.7815 2.68113C43.1596 1.27885 44.8545 0.569824 46.8821 0.569824ZM46.8821 2.9805C45.5673 2.9805 44.4268 3.45318 43.4606 4.39854C42.526 5.3439 42.0667 6.46258 42.0667 7.78609C42.0667 9.09384 42.526 10.2283 43.4606 11.1894C44.4268 12.119 45.5673 12.5759 46.8821 12.5759C48.1968 12.5759 49.3373 12.119 50.2877 11.1894C51.2223 10.2283 51.7133 9.1096 51.7133 7.78609C51.7133 6.47834 51.2381 5.3439 50.2877 4.39854C49.3215 3.45318 48.1968 2.9805 46.8821 2.9805Z" fill="black"/>
<path d="M68.0762 24.3772C70.072 24.3772 71.7828 25.0862 73.1767 26.4885C74.6024 27.9065 75.331 29.5924 75.331 31.5619C75.331 33.563 74.6182 35.2646 73.1767 36.6354C71.7828 38.0377 70.072 38.7467 68.0762 38.7467C66.0803 38.7467 64.3696 38.0377 62.9756 36.6354C61.55 35.2331 60.853 33.5472 60.853 31.5619C60.853 29.5924 61.5658 27.8908 62.9756 26.4885C64.3537 25.0705 66.0486 24.3772 68.0762 24.3772ZM68.0762 26.7721C66.7456 26.7721 65.6209 27.2448 64.6547 28.1744C63.7201 29.1198 63.2607 30.2384 63.2607 31.5619C63.2607 32.8697 63.7201 34.0041 64.6547 34.9653C65.6051 35.8949 66.7456 36.3518 68.0762 36.3518C69.3909 36.3518 70.5314 35.8949 71.466 34.9653C72.4164 34.0041 72.8916 32.8697 72.8916 31.5619C72.8916 30.2542 72.4164 29.1198 71.466 28.1744C70.5156 27.2448 69.3909 26.7721 68.0762 26.7721Z" fill="black"/>
<path d="M82.4275 24.3772H84.8194V36.3518H92.0583V38.7625H82.4275V24.3772Z" fill="black"/>
<path d="M0.0583496 48.1687H4.87378C5.85587 48.1687 6.79044 48.3578 7.66166 48.7359C8.53287 49.1141 9.30904 49.634 9.95849 50.2958C10.6238 50.9575 11.1307 51.7138 11.5267 52.5804C11.9068 53.447 12.0969 54.3766 12.0969 55.3535C12.0969 56.3303 11.9068 57.2599 11.5267 58.1265C11.1465 58.9931 10.6238 59.7651 9.97433 60.4111C9.32488 61.0729 8.54871 61.5928 7.66166 61.971C6.7746 62.3491 5.84003 62.5382 4.85794 62.5382H0.0583496V48.1687ZM4.87378 60.159C5.53907 60.159 6.17267 60.033 6.75876 59.7809C7.34485 59.5288 7.85174 59.1822 8.29526 58.741C8.73879 58.2998 9.07143 57.7799 9.32488 57.2127C9.57832 56.6297 9.70504 56.0152 9.70504 55.3692C9.70504 54.7232 9.57832 54.1087 9.32488 53.5258C9.07143 52.9428 8.72295 52.4386 8.27942 51.9974C7.8359 51.5562 7.31317 51.2096 6.74292 50.9575C6.15683 50.7054 5.53907 50.5794 4.88962 50.5794H2.45022V60.159H4.87378Z" fill="black"/>
<path d="M26.084 48.1687C28.0957 48.1687 29.7906 48.8777 31.2004 50.28C32.626 51.6981 33.3546 53.3839 33.3546 55.3692C33.3546 57.3702 32.6418 59.0719 31.2004 60.4426C29.7906 61.8449 28.0957 62.554 26.084 62.554C24.0881 62.554 22.3774 61.8449 20.9834 60.4426C19.5737 59.0404 18.8608 57.3545 18.8608 55.3692C18.8608 53.3997 19.5737 51.6981 20.9834 50.28C22.3615 48.8777 24.0723 48.1687 26.084 48.1687ZM26.084 50.5794C24.7692 50.5794 23.6287 51.0521 22.6625 51.9974C21.7279 52.9428 21.2686 54.0615 21.2686 55.385C21.2686 56.6927 21.7279 57.8271 22.6625 58.7883C23.6287 59.7179 24.7534 60.1748 26.084 60.1748C27.3987 60.1748 28.5392 59.7021 29.4896 58.7883C30.44 57.8271 30.8994 56.7085 30.8994 55.385C30.8994 54.0772 30.4242 52.9428 29.4896 51.9974C28.5392 51.0521 27.3987 50.5794 26.084 50.5794Z" fill="black"/>
<path d="M47.4524 48.1687C48.4503 48.1687 49.3849 48.3578 50.2719 48.7359C51.1431 49.1141 51.9193 49.634 52.5846 50.2958L50.858 51.9974C49.9234 51.0521 48.7988 50.5794 47.4524 50.5794C46.1218 50.5794 44.9971 51.0521 44.0309 51.9974C43.0963 52.9428 42.6369 54.0615 42.6369 55.385C42.6369 56.6927 43.0963 57.8271 44.0309 58.7883C44.9813 59.7179 46.1218 60.1748 47.4524 60.1748C48.1652 60.1748 48.8463 60.033 49.4641 59.7494C50.0818 59.4658 50.6204 59.0719 51.0798 58.5519V56.5824H47.4524V54.2033H53.4875V59.3397C53.1548 59.8282 52.7747 60.2693 52.3311 60.6632C51.8876 61.0571 51.4124 61.4038 50.9055 61.6874C50.3986 61.971 49.8442 62.1916 49.2581 62.3334C48.6721 62.4909 48.0701 62.554 47.4524 62.554C45.4407 62.554 43.7457 61.8449 42.336 60.4426C40.9262 59.0404 40.2134 57.3545 40.2134 55.3692C40.2134 53.3997 40.9262 51.6981 42.336 50.28C43.7457 48.8777 45.4565 48.1687 47.4524 48.1687Z" fill="black"/>
</g>
<defs>
<clipPath id="clip0">
<rect width="92" height="62" fill="white" transform="translate(0.0583496 0.569824)"/>
</clipPath>
</defs>
</svg>
