<svg width="91" height="88" viewBox="0 0 91 88" fill="none" xmlns="http://www.w3.org/2000/svg">
<g opacity="0.4" filter="url(#filter0_f)">
<path d="M74.581 18.2786C73.2265 14.8612 69.3252 13.1355 65.8858 14.4308C61.883 15.9383 58.8623 19.1467 57.5983 23.2332L55.565 29.8076C48.7474 27.9147 41.6213 27.9147 34.8041 29.8076L32.7707 23.2332C31.5068 19.1467 28.4862 15.9385 24.4832 14.4308C21.0431 13.1351 17.1425 14.8613 15.7882 18.2786C12.9985 25.3166 13.4908 33.1578 17.1394 39.7913C17.1394 39.7913 22.6969 49.3256 22.8203 49.5368C23.7909 51.1979 24.3146 53.0755 24.3414 55.0103C24.4027 59.415 25.3197 63.6989 27.067 67.7426L29.4419 73.2385C29.4419 73.2385 29.5606 73.465 29.6456 73.5633C29.8854 73.8406 30.2338 74 30.6005 74H32.232C33.5583 74 34.7772 73.4769 35.6795 72.617C35.9932 72.6606 36.3108 72.6846 36.6305 72.6846C38.3996 72.6846 40.0684 72.013 41.3316 70.816C42.5676 71.2318 43.86 71.442 45.1848 71.442C46.5096 71.442 47.8018 71.2316 49.038 70.816C50.3013 72.013 51.97 72.6846 53.739 72.6846C54.0588 72.6846 54.3763 72.6606 54.69 72.617C55.5924 73.4768 56.8111 74 58.1375 74H59.7691C60.1357 74 60.4841 73.8406 60.7239 73.5633C60.8089 73.465 60.9277 73.2385 60.9277 73.2385L63.3026 67.7426C65.0499 63.6987 65.9669 59.4149 66.028 55.0104C66.0549 53.0755 66.5787 51.198 67.5491 49.5369C67.6725 49.3257 73.2303 39.7913 73.2303 39.7913C76.8784 33.1578 77.3709 25.3166 74.581 18.2786ZM59.287 32.9253L57.8082 31.0986L58.4923 28.8867C58.7142 30.3482 58.9913 31.7041 59.287 32.9253ZM31.8773 28.8874L32.5612 31.0986L31.0826 32.925C31.3781 31.7041 31.6553 30.3485 31.8773 28.8874ZM18.135 19.2087C18.9852 17.0634 21.4337 15.9797 23.5938 16.7931C26.4132 17.8551 28.6348 19.951 29.8543 22.6485C29.7981 30.7023 27.13 37.3167 26.6913 38.3497L22.2469 43.8398L19.3512 38.5747C16.0668 32.6032 15.6234 25.5445 18.135 19.2087ZM50.3698 68.5452C50.0165 68.106 49.4148 67.9543 48.8961 68.1729C47.7224 68.6673 46.4738 68.9181 45.1846 68.9181C43.8955 68.9181 42.6468 68.6673 41.4732 68.1729C40.9544 67.9543 40.3525 68.106 39.9995 68.5452C39.2732 69.4487 38.2348 70.0126 37.0992 70.135C37.1387 69.9646 37.1707 69.7913 37.1926 69.6143L37.4641 67.4167C37.4641 67.4167 37.4641 67.4167 37.4642 67.4167C37.7246 65.3071 38.8206 63.4799 40.3934 62.248C41.7716 63.2773 43.4379 63.8361 45.1846 63.8361C46.9314 63.8361 48.5976 63.2773 49.9759 62.248C51.5486 63.4801 52.6447 65.3071 52.9052 67.4167L53.1766 69.6143C53.1984 69.7913 53.2304 69.9648 53.27 70.135C52.1345 70.0126 51.0961 69.4487 50.3698 68.5452ZM45.8055 54.2059L45.6668 54.5175C45.349 54.5531 45.0204 54.5531 44.7027 54.5175L44.5638 54.2059C44.1353 53.2443 43.1886 52.6634 42.1919 52.679C42.1873 52.6348 42.1849 52.5907 42.1849 52.5461C42.1849 52.2774 42.2524 51.9617 42.7537 51.6581C43.2669 51.3472 44.0626 51.1641 44.9979 51.1426C45.1231 51.1394 45.2426 51.1392 45.3754 51.1426C46.3069 51.1641 47.1025 51.3471 47.6157 51.6581C48.1169 51.9617 48.1845 52.2774 48.1845 52.5461C48.1845 52.5905 48.1821 52.6348 48.1775 52.679C48.1683 52.6789 48.1589 52.6789 48.1495 52.6789C47.1593 52.6787 46.2298 53.2533 45.8055 54.2059ZM45.1846 60.591C45.9186 60.591 46.6314 60.6939 47.3086 60.8866C46.6439 61.1648 45.9249 61.3118 45.1846 61.3118C44.4443 61.3118 43.7254 61.1648 43.0607 60.8866C43.7378 60.6939 44.4507 60.591 45.1846 60.591ZM58.1373 71.4759C56.8901 71.4759 55.8344 70.5425 55.6816 69.3048L55.4101 67.1072C54.8258 62.377 51.0742 58.7168 46.4466 58.1466V56.9507C46.587 56.9242 46.7264 56.8933 46.8644 56.8578C47.2375 56.7619 47.5463 56.5009 47.7031 56.149L48.111 55.2328C48.121 55.2102 48.1461 55.199 48.1698 55.2069L48.5187 55.322C49.0405 55.4943 49.6132 55.3092 49.9356 54.8648C50.441 54.1684 50.7083 53.3664 50.7083 52.5457C50.7083 50.2339 48.6376 48.6925 45.4369 48.6188C45.2679 48.6145 45.0969 48.6145 44.9356 48.6188C41.731 48.6926 39.6604 50.234 39.6604 52.5458C39.6604 53.3666 39.9276 54.1686 40.433 54.865C40.7556 55.3094 41.3284 55.4941 41.8499 55.3221L42.1992 55.2069C42.2221 55.1992 42.2477 55.2102 42.2577 55.2328L42.6658 56.149C42.8225 56.5008 43.1313 56.7619 43.5044 56.8577C43.6422 56.8932 43.7817 56.924 43.9221 56.9505V58.1464C39.2944 58.7166 35.5427 62.3769 34.9585 67.1071H34.9587L34.6872 69.3046C34.5342 70.5424 33.4785 71.4757 32.2313 71.4757H32.0596L34.1016 57.4976C34.4903 54.8367 35.8247 52.4025 37.8591 50.6438C39.8935 48.8851 42.495 47.9164 45.1841 47.9164C47.8732 47.9164 50.4747 48.885 52.5089 50.6438C54.5431 52.4026 55.8776 54.8367 56.2665 57.4976L58.3085 71.4757H58.1373V71.4759ZM65.8492 47.5009C64.3521 49.7167 63.5411 52.3014 63.5038 54.9752C63.4474 59.0455 62.6 63.0043 60.9852 66.7414L60.3748 68.1541L58.7647 57.133C58.4771 55.1637 57.7642 53.2973 56.6974 51.6519C57.1138 51.7633 57.5231 51.8206 57.9204 51.8206C58.1542 51.8206 58.384 51.8012 58.6084 51.7619C59.606 51.5874 60.5429 51.0318 61.3928 50.1109C62.118 49.325 62.4285 48.2712 62.2444 47.2194C62.0604 46.1677 61.4108 45.2817 60.462 44.7886C59.3498 44.2107 58.2801 44.006 57.2822 44.1807C56.1018 44.3871 54.9732 45.1556 54.0184 46.4031C53.5524 47.0117 53.238 47.5853 53.0819 47.8955C50.7788 46.2748 48.0223 45.3926 45.1845 45.3926C42.3467 45.3926 39.5902 46.2748 37.287 47.8955C37.1309 47.5853 36.8165 47.0117 36.3506 46.4031C35.3956 45.1556 34.2672 44.3873 33.0868 44.1807C32.0889 44.006 31.0192 44.2107 29.907 44.7886C28.9581 45.2817 28.3085 46.1675 28.1245 47.2194C27.9404 48.2712 28.2509 49.3252 28.976 50.1109C29.8261 51.032 30.7629 51.5876 31.7606 51.762C31.9853 51.8013 32.2147 51.8208 32.4486 51.8208C32.8458 51.8208 33.2551 51.7636 33.6716 51.6521C32.6048 53.2974 31.8919 55.1638 31.6043 57.1331L29.9944 68.1542L29.384 66.7416C27.7692 63.0047 26.9217 59.0459 26.8652 54.9755C26.8282 52.3015 26.0171 49.7169 24.5198 47.501L23.6149 46.1615L34.7043 32.4626C41.5687 30.3945 48.7999 30.3943 55.6646 32.4626L66.754 46.1614L65.8492 47.5009ZM55.7249 48.3595C56.1874 47.6544 56.9155 46.8073 57.7173 46.6669C58.2645 46.5711 58.8792 46.8105 59.2982 47.0283C59.6336 47.2026 59.7302 47.4951 59.758 47.654C59.7858 47.8129 59.7942 48.121 59.5378 48.3988C59.2177 48.7459 58.7211 49.1795 58.1735 49.2753C57.3722 49.4156 56.3993 48.8659 55.7249 48.3595ZM34.6443 48.3595C33.9699 48.8658 32.9972 49.4149 32.1958 49.2754C31.6482 49.1796 31.1515 48.7459 30.8313 48.3988C30.575 48.1211 30.5832 47.813 30.6111 47.6542C30.639 47.4953 30.7357 47.2026 31.071 47.0284C31.4246 46.8446 31.9177 46.6453 32.3922 46.6453C32.4797 46.6453 32.5668 46.6522 32.6521 46.6671C33.4538 46.8073 34.1819 47.6546 34.6443 48.3595ZM71.0182 38.5749L68.1225 43.8399L63.6774 38.349C63.238 37.318 60.5709 30.7256 60.515 22.6487C61.7346 19.951 63.9562 17.8551 66.7756 16.7932C68.9349 15.9801 71.3841 17.0633 72.2346 19.2089C74.7459 25.5445 74.3026 32.6032 71.0182 38.5749Z" fill="url(#paint0_linear)"/>
</g>
<g opacity="0.4" filter="url(#filter1_f)">
<path d="M74.581 18.2786C73.2265 14.8612 69.3252 13.1355 65.8858 14.4308C61.883 15.9383 58.8623 19.1467 57.5983 23.2332L55.565 29.8076C48.7474 27.9147 41.6213 27.9147 34.8041 29.8076L32.7707 23.2332C31.5068 19.1467 28.4862 15.9385 24.4832 14.4308C21.0431 13.1351 17.1425 14.8613 15.7882 18.2786C12.9985 25.3166 13.4908 33.1578 17.1394 39.7913C17.1394 39.7913 22.6969 49.3256 22.8203 49.5368C23.7909 51.1979 24.3146 53.0755 24.3414 55.0103C24.4027 59.415 25.3197 63.6989 27.067 67.7426L29.4419 73.2385C29.4419 73.2385 29.5606 73.465 29.6456 73.5633C29.8854 73.8406 30.2338 74 30.6005 74H32.232C33.5583 74 34.7772 73.4769 35.6795 72.617C35.9932 72.6606 36.3108 72.6846 36.6305 72.6846C38.3996 72.6846 40.0684 72.013 41.3316 70.816C42.5676 71.2318 43.86 71.442 45.1848 71.442C46.5096 71.442 47.8018 71.2316 49.038 70.816C50.3013 72.013 51.97 72.6846 53.739 72.6846C54.0588 72.6846 54.3763 72.6606 54.69 72.617C55.5924 73.4768 56.8111 74 58.1375 74H59.7691C60.1357 74 60.4841 73.8406 60.7239 73.5633C60.8089 73.465 60.9277 73.2385 60.9277 73.2385L63.3026 67.7426C65.0499 63.6987 65.9669 59.4149 66.028 55.0104C66.0549 53.0755 66.5787 51.198 67.5491 49.5369C67.6725 49.3257 73.2303 39.7913 73.2303 39.7913C76.8784 33.1578 77.3709 25.3166 74.581 18.2786ZM59.287 32.9253L57.8082 31.0986L58.4923 28.8867C58.7142 30.3482 58.9913 31.7041 59.287 32.9253ZM31.8773 28.8874L32.5612 31.0986L31.0826 32.925C31.3781 31.7041 31.6553 30.3485 31.8773 28.8874ZM18.135 19.2087C18.9852 17.0634 21.4337 15.9797 23.5938 16.7931C26.4132 17.8551 28.6348 19.951 29.8543 22.6485C29.7981 30.7023 27.13 37.3167 26.6913 38.3497L22.2469 43.8398L19.3512 38.5747C16.0668 32.6032 15.6234 25.5445 18.135 19.2087ZM50.3698 68.5452C50.0165 68.106 49.4148 67.9543 48.8961 68.1729C47.7224 68.6673 46.4738 68.9181 45.1846 68.9181C43.8955 68.9181 42.6468 68.6673 41.4732 68.1729C40.9544 67.9543 40.3525 68.106 39.9995 68.5452C39.2732 69.4487 38.2348 70.0126 37.0992 70.135C37.1387 69.9646 37.1707 69.7913 37.1926 69.6143L37.4641 67.4167C37.4641 67.4167 37.4641 67.4167 37.4642 67.4167C37.7246 65.3071 38.8206 63.4799 40.3934 62.248C41.7716 63.2773 43.4379 63.8361 45.1846 63.8361C46.9314 63.8361 48.5976 63.2773 49.9759 62.248C51.5486 63.4801 52.6447 65.3071 52.9052 67.4167L53.1766 69.6143C53.1984 69.7913 53.2304 69.9648 53.27 70.135C52.1345 70.0126 51.0961 69.4487 50.3698 68.5452ZM45.8055 54.2059L45.6668 54.5175C45.349 54.5531 45.0204 54.5531 44.7027 54.5175L44.5638 54.2059C44.1353 53.2443 43.1886 52.6634 42.1919 52.679C42.1873 52.6348 42.1849 52.5907 42.1849 52.5461C42.1849 52.2774 42.2524 51.9617 42.7537 51.6581C43.2669 51.3472 44.0626 51.1641 44.9979 51.1426C45.1231 51.1394 45.2426 51.1392 45.3754 51.1426C46.3069 51.1641 47.1025 51.3471 47.6157 51.6581C48.1169 51.9617 48.1845 52.2774 48.1845 52.5461C48.1845 52.5905 48.1821 52.6348 48.1775 52.679C48.1683 52.6789 48.1589 52.6789 48.1495 52.6789C47.1593 52.6787 46.2298 53.2533 45.8055 54.2059ZM45.1846 60.591C45.9186 60.591 46.6314 60.6939 47.3086 60.8866C46.6439 61.1648 45.9249 61.3118 45.1846 61.3118C44.4443 61.3118 43.7254 61.1648 43.0607 60.8866C43.7378 60.6939 44.4507 60.591 45.1846 60.591ZM58.1373 71.4759C56.8901 71.4759 55.8344 70.5425 55.6816 69.3048L55.4101 67.1072C54.8258 62.377 51.0742 58.7168 46.4466 58.1466V56.9507C46.587 56.9242 46.7264 56.8933 46.8644 56.8578C47.2375 56.7619 47.5463 56.5009 47.7031 56.149L48.111 55.2328C48.121 55.2102 48.1461 55.199 48.1698 55.2069L48.5187 55.322C49.0405 55.4943 49.6132 55.3092 49.9356 54.8648C50.441 54.1684 50.7083 53.3664 50.7083 52.5457C50.7083 50.2339 48.6376 48.6925 45.4369 48.6188C45.2679 48.6145 45.0969 48.6145 44.9356 48.6188C41.731 48.6926 39.6604 50.234 39.6604 52.5458C39.6604 53.3666 39.9276 54.1686 40.433 54.865C40.7556 55.3094 41.3284 55.4941 41.8499 55.3221L42.1992 55.2069C42.2221 55.1992 42.2477 55.2102 42.2577 55.2328L42.6658 56.149C42.8225 56.5008 43.1313 56.7619 43.5044 56.8577C43.6422 56.8932 43.7817 56.924 43.9221 56.9505V58.1464C39.2944 58.7166 35.5427 62.3769 34.9585 67.1071H34.9587L34.6872 69.3046C34.5342 70.5424 33.4785 71.4757 32.2313 71.4757H32.0596L34.1016 57.4976C34.4903 54.8367 35.8247 52.4025 37.8591 50.6438C39.8935 48.8851 42.495 47.9164 45.1841 47.9164C47.8732 47.9164 50.4747 48.885 52.5089 50.6438C54.5431 52.4026 55.8776 54.8367 56.2665 57.4976L58.3085 71.4757H58.1373V71.4759ZM65.8492 47.5009C64.3521 49.7167 63.5411 52.3014 63.5038 54.9752C63.4474 59.0455 62.6 63.0043 60.9852 66.7414L60.3748 68.1541L58.7647 57.133C58.4771 55.1637 57.7642 53.2973 56.6974 51.6519C57.1138 51.7633 57.5231 51.8206 57.9204 51.8206C58.1542 51.8206 58.384 51.8012 58.6084 51.7619C59.606 51.5874 60.5429 51.0318 61.3928 50.1109C62.118 49.325 62.4285 48.2712 62.2444 47.2194C62.0604 46.1677 61.4108 45.2817 60.462 44.7886C59.3498 44.2107 58.2801 44.006 57.2822 44.1807C56.1018 44.3871 54.9732 45.1556 54.0184 46.4031C53.5524 47.0117 53.238 47.5853 53.0819 47.8955C50.7788 46.2748 48.0223 45.3926 45.1845 45.3926C42.3467 45.3926 39.5902 46.2748 37.287 47.8955C37.1309 47.5853 36.8165 47.0117 36.3506 46.4031C35.3956 45.1556 34.2672 44.3873 33.0868 44.1807C32.0889 44.006 31.0192 44.2107 29.907 44.7886C28.9581 45.2817 28.3085 46.1675 28.1245 47.2194C27.9404 48.2712 28.2509 49.3252 28.976 50.1109C29.8261 51.032 30.7629 51.5876 31.7606 51.762C31.9853 51.8013 32.2147 51.8208 32.4486 51.8208C32.8458 51.8208 33.2551 51.7636 33.6716 51.6521C32.6048 53.2974 31.8919 55.1638 31.6043 57.1331L29.9944 68.1542L29.384 66.7416C27.7692 63.0047 26.9217 59.0459 26.8652 54.9755C26.8282 52.3015 26.0171 49.7169 24.5198 47.501L23.6149 46.1615L34.7043 32.4626C41.5687 30.3945 48.7999 30.3943 55.6646 32.4626L66.754 46.1614L65.8492 47.5009ZM55.7249 48.3595C56.1874 47.6544 56.9155 46.8073 57.7173 46.6669C58.2645 46.5711 58.8792 46.8105 59.2982 47.0283C59.6336 47.2026 59.7302 47.4951 59.758 47.654C59.7858 47.8129 59.7942 48.121 59.5378 48.3988C59.2177 48.7459 58.7211 49.1795 58.1735 49.2753C57.3722 49.4156 56.3993 48.8659 55.7249 48.3595ZM34.6443 48.3595C33.9699 48.8658 32.9972 49.4149 32.1958 49.2754C31.6482 49.1796 31.1515 48.7459 30.8313 48.3988C30.575 48.1211 30.5832 47.813 30.6111 47.6542C30.639 47.4953 30.7357 47.2026 31.071 47.0284C31.4246 46.8446 31.9177 46.6453 32.3922 46.6453C32.4797 46.6453 32.5668 46.6522 32.6521 46.6671C33.4538 46.8073 34.1819 47.6546 34.6443 48.3595ZM71.0182 38.5749L68.1225 43.8399L63.6774 38.349C63.238 37.318 60.5709 30.7256 60.515 22.6487C61.7346 19.951 63.9562 17.8551 66.7756 16.7932C68.9349 15.9801 71.3841 17.0633 72.2346 19.2089C74.7459 25.5445 74.3026 32.6032 71.0182 38.5749Z" fill="url(#paint1_linear)"/>
</g>
<g filter="url(#filter2_f)">
<path d="M74.581 18.2786C73.2265 14.8612 69.3252 13.1355 65.8858 14.4308C61.883 15.9383 58.8623 19.1467 57.5983 23.2332L55.565 29.8076C48.7474 27.9147 41.6213 27.9147 34.8041 29.8076L32.7707 23.2332C31.5068 19.1467 28.4862 15.9385 24.4832 14.4308C21.0431 13.1351 17.1425 14.8613 15.7882 18.2786C12.9985 25.3166 13.4908 33.1578 17.1394 39.7913C17.1394 39.7913 22.6969 49.3256 22.8203 49.5368C23.7909 51.1979 24.3146 53.0755 24.3414 55.0103C24.4027 59.415 25.3197 63.6989 27.067 67.7426L29.4419 73.2385C29.4419 73.2385 29.5606 73.465 29.6456 73.5633C29.8854 73.8406 30.2338 74 30.6005 74H32.232C33.5583 74 34.7772 73.4769 35.6795 72.617C35.9932 72.6606 36.3108 72.6846 36.6305 72.6846C38.3996 72.6846 40.0684 72.013 41.3316 70.816C42.5676 71.2318 43.86 71.442 45.1848 71.442C46.5096 71.442 47.8018 71.2316 49.038 70.816C50.3013 72.013 51.97 72.6846 53.739 72.6846C54.0588 72.6846 54.3763 72.6606 54.69 72.617C55.5924 73.4768 56.8111 74 58.1375 74H59.7691C60.1357 74 60.4841 73.8406 60.7239 73.5633C60.8089 73.465 60.9277 73.2385 60.9277 73.2385L63.3026 67.7426C65.0499 63.6987 65.9669 59.4149 66.028 55.0104C66.0549 53.0755 66.5787 51.198 67.5491 49.5369C67.6725 49.3257 73.2303 39.7913 73.2303 39.7913C76.8784 33.1578 77.3709 25.3166 74.581 18.2786ZM59.287 32.9253L57.8082 31.0986L58.4923 28.8867C58.7142 30.3482 58.9913 31.7041 59.287 32.9253ZM31.8773 28.8874L32.5612 31.0986L31.0826 32.925C31.3781 31.7041 31.6553 30.3485 31.8773 28.8874ZM18.135 19.2087C18.9852 17.0634 21.4337 15.9797 23.5938 16.7931C26.4132 17.8551 28.6348 19.951 29.8543 22.6485C29.7981 30.7023 27.13 37.3167 26.6913 38.3497L22.2469 43.8398L19.3512 38.5747C16.0668 32.6032 15.6234 25.5445 18.135 19.2087ZM50.3698 68.5452C50.0165 68.106 49.4148 67.9543 48.8961 68.1729C47.7224 68.6673 46.4738 68.9181 45.1846 68.9181C43.8955 68.9181 42.6468 68.6673 41.4732 68.1729C40.9544 67.9543 40.3525 68.106 39.9995 68.5452C39.2732 69.4487 38.2348 70.0126 37.0992 70.135C37.1387 69.9646 37.1707 69.7913 37.1926 69.6143L37.4641 67.4167C37.4641 67.4167 37.4641 67.4167 37.4642 67.4167C37.7246 65.3071 38.8206 63.4799 40.3934 62.248C41.7716 63.2773 43.4379 63.8361 45.1846 63.8361C46.9314 63.8361 48.5976 63.2773 49.9759 62.248C51.5486 63.4801 52.6447 65.3071 52.9052 67.4167L53.1766 69.6143C53.1984 69.7913 53.2304 69.9648 53.27 70.135C52.1345 70.0126 51.0961 69.4487 50.3698 68.5452ZM45.8055 54.2059L45.6668 54.5175C45.349 54.5531 45.0204 54.5531 44.7027 54.5175L44.5638 54.2059C44.1353 53.2443 43.1886 52.6634 42.1919 52.679C42.1873 52.6348 42.1849 52.5907 42.1849 52.5461C42.1849 52.2774 42.2524 51.9617 42.7537 51.6581C43.2669 51.3472 44.0626 51.1641 44.9979 51.1426C45.1231 51.1394 45.2426 51.1392 45.3754 51.1426C46.3069 51.1641 47.1025 51.3471 47.6157 51.6581C48.1169 51.9617 48.1845 52.2774 48.1845 52.5461C48.1845 52.5905 48.1821 52.6348 48.1775 52.679C48.1683 52.6789 48.1589 52.6789 48.1495 52.6789C47.1593 52.6787 46.2298 53.2533 45.8055 54.2059ZM45.1846 60.591C45.9186 60.591 46.6314 60.6939 47.3086 60.8866C46.6439 61.1648 45.9249 61.3118 45.1846 61.3118C44.4443 61.3118 43.7254 61.1648 43.0607 60.8866C43.7378 60.6939 44.4507 60.591 45.1846 60.591ZM58.1373 71.4759C56.8901 71.4759 55.8344 70.5425 55.6816 69.3048L55.4101 67.1072C54.8258 62.377 51.0742 58.7168 46.4466 58.1466V56.9507C46.587 56.9242 46.7264 56.8933 46.8644 56.8578C47.2375 56.7619 47.5463 56.5009 47.7031 56.149L48.111 55.2328C48.121 55.2102 48.1461 55.199 48.1698 55.2069L48.5187 55.322C49.0405 55.4943 49.6132 55.3092 49.9356 54.8648C50.441 54.1684 50.7083 53.3664 50.7083 52.5457C50.7083 50.2339 48.6376 48.6925 45.4369 48.6188C45.2679 48.6145 45.0969 48.6145 44.9356 48.6188C41.731 48.6926 39.6604 50.234 39.6604 52.5458C39.6604 53.3666 39.9276 54.1686 40.433 54.865C40.7556 55.3094 41.3284 55.4941 41.8499 55.3221L42.1992 55.2069C42.2221 55.1992 42.2477 55.2102 42.2577 55.2328L42.6658 56.149C42.8225 56.5008 43.1313 56.7619 43.5044 56.8577C43.6422 56.8932 43.7817 56.924 43.9221 56.9505V58.1464C39.2944 58.7166 35.5427 62.3769 34.9585 67.1071H34.9587L34.6872 69.3046C34.5342 70.5424 33.4785 71.4757 32.2313 71.4757H32.0596L34.1016 57.4976C34.4903 54.8367 35.8247 52.4025 37.8591 50.6438C39.8935 48.8851 42.495 47.9164 45.1841 47.9164C47.8732 47.9164 50.4747 48.885 52.5089 50.6438C54.5431 52.4026 55.8776 54.8367 56.2665 57.4976L58.3085 71.4757H58.1373V71.4759ZM65.8492 47.5009C64.3521 49.7167 63.5411 52.3014 63.5038 54.9752C63.4474 59.0455 62.6 63.0043 60.9852 66.7414L60.3748 68.1541L58.7647 57.133C58.4771 55.1637 57.7642 53.2973 56.6974 51.6519C57.1138 51.7633 57.5231 51.8206 57.9204 51.8206C58.1542 51.8206 58.384 51.8012 58.6084 51.7619C59.606 51.5874 60.5429 51.0318 61.3928 50.1109C62.118 49.325 62.4285 48.2712 62.2444 47.2194C62.0604 46.1677 61.4108 45.2817 60.462 44.7886C59.3498 44.2107 58.2801 44.006 57.2822 44.1807C56.1018 44.3871 54.9732 45.1556 54.0184 46.4031C53.5524 47.0117 53.238 47.5853 53.0819 47.8955C50.7788 46.2748 48.0223 45.3926 45.1845 45.3926C42.3467 45.3926 39.5902 46.2748 37.287 47.8955C37.1309 47.5853 36.8165 47.0117 36.3506 46.4031C35.3956 45.1556 34.2672 44.3873 33.0868 44.1807C32.0889 44.006 31.0192 44.2107 29.907 44.7886C28.9581 45.2817 28.3085 46.1675 28.1245 47.2194C27.9404 48.2712 28.2509 49.3252 28.976 50.1109C29.8261 51.032 30.7629 51.5876 31.7606 51.762C31.9853 51.8013 32.2147 51.8208 32.4486 51.8208C32.8458 51.8208 33.2551 51.7636 33.6716 51.6521C32.6048 53.2974 31.8919 55.1638 31.6043 57.1331L29.9944 68.1542L29.384 66.7416C27.7692 63.0047 26.9217 59.0459 26.8652 54.9755C26.8282 52.3015 26.0171 49.7169 24.5198 47.501L23.6149 46.1615L34.7043 32.4626C41.5687 30.3945 48.7999 30.3943 55.6646 32.4626L66.754 46.1614L65.8492 47.5009ZM55.7249 48.3595C56.1874 47.6544 56.9155 46.8073 57.7173 46.6669C58.2645 46.5711 58.8792 46.8105 59.2982 47.0283C59.6336 47.2026 59.7302 47.4951 59.758 47.654C59.7858 47.8129 59.7942 48.121 59.5378 48.3988C59.2177 48.7459 58.7211 49.1795 58.1735 49.2753C57.3722 49.4156 56.3993 48.8659 55.7249 48.3595ZM34.6443 48.3595C33.9699 48.8658 32.9972 49.4149 32.1958 49.2754C31.6482 49.1796 31.1515 48.7459 30.8313 48.3988C30.575 48.1211 30.5832 47.813 30.6111 47.6542C30.639 47.4953 30.7357 47.2026 31.071 47.0284C31.4246 46.8446 31.9177 46.6453 32.3922 46.6453C32.4797 46.6453 32.5668 46.6522 32.6521 46.6671C33.4538 46.8073 34.1819 47.6546 34.6443 48.3595ZM71.0182 38.5749L68.1225 43.8399L63.6774 38.349C63.238 37.318 60.5709 30.7256 60.515 22.6487C61.7346 19.951 63.9562 17.8551 66.7756 16.7932C68.9349 15.9801 71.3841 17.0633 72.2346 19.2089C74.7459 25.5445 74.3026 32.6032 71.0182 38.5749Z" fill="#EF99D7"/>
</g>
<path opacity="0.9" d="M74.581 18.2786C73.2265 14.8612 69.3252 13.1355 65.8858 14.4308C61.883 15.9383 58.8623 19.1467 57.5983 23.2332L55.565 29.8076C48.7474 27.9147 41.6213 27.9147 34.8041 29.8076L32.7707 23.2332C31.5068 19.1467 28.4862 15.9385 24.4832 14.4308C21.0431 13.1351 17.1425 14.8613 15.7882 18.2786C12.9985 25.3166 13.4908 33.1578 17.1394 39.7913C17.1394 39.7913 22.6969 49.3256 22.8203 49.5368C23.7909 51.1979 24.3146 53.0755 24.3414 55.0103C24.4027 59.415 25.3197 63.6989 27.067 67.7426L29.4419 73.2385C29.4419 73.2385 29.5606 73.465 29.6456 73.5633C29.8854 73.8406 30.2338 74 30.6005 74H32.232C33.5583 74 34.7772 73.4769 35.6795 72.617C35.9932 72.6606 36.3108 72.6846 36.6305 72.6846C38.3996 72.6846 40.0684 72.013 41.3316 70.816C42.5676 71.2318 43.86 71.442 45.1848 71.442C46.5096 71.442 47.8018 71.2316 49.038 70.816C50.3013 72.013 51.97 72.6846 53.739 72.6846C54.0588 72.6846 54.3763 72.6606 54.69 72.617C55.5924 73.4768 56.8111 74 58.1375 74H59.7691C60.1357 74 60.4841 73.8406 60.7239 73.5633C60.8089 73.465 60.9277 73.2385 60.9277 73.2385L63.3026 67.7426C65.0499 63.6987 65.9669 59.4149 66.028 55.0104C66.0549 53.0755 66.5787 51.198 67.5491 49.5369C67.6725 49.3257 73.2303 39.7913 73.2303 39.7913C76.8784 33.1578 77.3709 25.3166 74.581 18.2786ZM59.287 32.9253L57.8082 31.0986L58.4923 28.8867C58.7142 30.3482 58.9913 31.7041 59.287 32.9253ZM31.8773 28.8874L32.5612 31.0986L31.0826 32.925C31.3781 31.7041 31.6553 30.3485 31.8773 28.8874ZM18.135 19.2087C18.9852 17.0634 21.4337 15.9797 23.5938 16.7931C26.4132 17.8551 28.6348 19.951 29.8543 22.6485C29.7981 30.7023 27.13 37.3167 26.6913 38.3497L22.2469 43.8398L19.3512 38.5747C16.0668 32.6032 15.6234 25.5445 18.135 19.2087ZM50.3698 68.5452C50.0165 68.106 49.4148 67.9543 48.8961 68.1729C47.7224 68.6673 46.4738 68.9181 45.1846 68.9181C43.8955 68.9181 42.6468 68.6673 41.4732 68.1729C40.9544 67.9543 40.3525 68.106 39.9995 68.5452C39.2732 69.4487 38.2348 70.0126 37.0992 70.135C37.1387 69.9646 37.1707 69.7913 37.1926 69.6143L37.4641 67.4167C37.4641 67.4167 37.4641 67.4167 37.4642 67.4167C37.7246 65.3071 38.8206 63.4799 40.3934 62.248C41.7716 63.2773 43.4379 63.8361 45.1846 63.8361C46.9314 63.8361 48.5976 63.2773 49.9759 62.248C51.5486 63.4801 52.6447 65.3071 52.9052 67.4167L53.1766 69.6143C53.1984 69.7913 53.2304 69.9648 53.27 70.135C52.1345 70.0126 51.0961 69.4487 50.3698 68.5452ZM45.8055 54.2059L45.6668 54.5175C45.349 54.5531 45.0204 54.5531 44.7027 54.5175L44.5638 54.2059C44.1353 53.2443 43.1886 52.6634 42.1919 52.679C42.1873 52.6348 42.1849 52.5907 42.1849 52.5461C42.1849 52.2774 42.2524 51.9617 42.7537 51.6581C43.2669 51.3472 44.0626 51.1641 44.9979 51.1426C45.1231 51.1394 45.2426 51.1392 45.3754 51.1426C46.3069 51.1641 47.1025 51.3471 47.6157 51.6581C48.1169 51.9617 48.1845 52.2774 48.1845 52.5461C48.1845 52.5905 48.1821 52.6348 48.1775 52.679C48.1683 52.6789 48.1589 52.6789 48.1495 52.6789C47.1593 52.6787 46.2298 53.2533 45.8055 54.2059ZM45.1846 60.591C45.9186 60.591 46.6314 60.6939 47.3086 60.8866C46.6439 61.1648 45.9249 61.3118 45.1846 61.3118C44.4443 61.3118 43.7254 61.1648 43.0607 60.8866C43.7378 60.6939 44.4507 60.591 45.1846 60.591ZM58.1373 71.4759C56.8901 71.4759 55.8344 70.5425 55.6816 69.3048L55.4101 67.1072C54.8258 62.377 51.0742 58.7168 46.4466 58.1466V56.9507C46.587 56.9242 46.7264 56.8933 46.8644 56.8578C47.2375 56.7619 47.5463 56.5009 47.7031 56.149L48.111 55.2328C48.121 55.2102 48.1461 55.199 48.1698 55.2069L48.5187 55.322C49.0405 55.4943 49.6132 55.3092 49.9356 54.8648C50.441 54.1684 50.7083 53.3664 50.7083 52.5457C50.7083 50.2339 48.6376 48.6925 45.4369 48.6188C45.2679 48.6145 45.0969 48.6145 44.9356 48.6188C41.731 48.6926 39.6604 50.234 39.6604 52.5458C39.6604 53.3666 39.9276 54.1686 40.433 54.865C40.7556 55.3094 41.3284 55.4941 41.8499 55.3221L42.1992 55.2069C42.2221 55.1992 42.2477 55.2102 42.2577 55.2328L42.6658 56.149C42.8225 56.5008 43.1313 56.7619 43.5044 56.8577C43.6422 56.8932 43.7817 56.924 43.9221 56.9505V58.1464C39.2944 58.7166 35.5427 62.3769 34.9585 67.1071H34.9587L34.6872 69.3046C34.5342 70.5424 33.4785 71.4757 32.2313 71.4757H32.0596L34.1016 57.4976C34.4903 54.8367 35.8247 52.4025 37.8591 50.6438C39.8935 48.8851 42.495 47.9164 45.1841 47.9164C47.8732 47.9164 50.4747 48.885 52.5089 50.6438C54.5431 52.4026 55.8776 54.8367 56.2665 57.4976L58.3085 71.4757H58.1373V71.4759ZM65.8492 47.5009C64.3521 49.7167 63.5411 52.3014 63.5038 54.9752C63.4474 59.0455 62.6 63.0043 60.9852 66.7414L60.3748 68.1541L58.7647 57.133C58.4771 55.1637 57.7642 53.2973 56.6974 51.6519C57.1138 51.7633 57.5231 51.8206 57.9204 51.8206C58.1542 51.8206 58.384 51.8012 58.6084 51.7619C59.606 51.5874 60.5429 51.0318 61.3928 50.1109C62.118 49.325 62.4285 48.2712 62.2444 47.2194C62.0604 46.1677 61.4108 45.2817 60.462 44.7886C59.3498 44.2107 58.2801 44.006 57.2822 44.1807C56.1018 44.3871 54.9732 45.1556 54.0184 46.4031C53.5524 47.0117 53.238 47.5853 53.0819 47.8955C50.7788 46.2748 48.0223 45.3926 45.1845 45.3926C42.3467 45.3926 39.5902 46.2748 37.287 47.8955C37.1309 47.5853 36.8165 47.0117 36.3506 46.4031C35.3956 45.1556 34.2672 44.3873 33.0868 44.1807C32.0889 44.006 31.0192 44.2107 29.907 44.7886C28.9581 45.2817 28.3085 46.1675 28.1245 47.2194C27.9404 48.2712 28.2509 49.3252 28.976 50.1109C29.8261 51.032 30.7629 51.5876 31.7606 51.762C31.9853 51.8013 32.2147 51.8208 32.4486 51.8208C32.8458 51.8208 33.2551 51.7636 33.6716 51.6521C32.6048 53.2974 31.8919 55.1638 31.6043 57.1331L29.9944 68.1542L29.384 66.7416C27.7692 63.0047 26.9217 59.0459 26.8652 54.9755C26.8282 52.3015 26.0171 49.7169 24.5198 47.501L23.6149 46.1615L34.7043 32.4626C41.5687 30.3945 48.7999 30.3943 55.6646 32.4626L66.754 46.1614L65.8492 47.5009ZM55.7249 48.3595C56.1874 47.6544 56.9155 46.8073 57.7173 46.6669C58.2645 46.5711 58.8792 46.8105 59.2982 47.0283C59.6336 47.2026 59.7302 47.4951 59.758 47.654C59.7858 47.8129 59.7942 48.121 59.5378 48.3988C59.2177 48.7459 58.7211 49.1795 58.1735 49.2753C57.3722 49.4156 56.3993 48.8659 55.7249 48.3595ZM34.6443 48.3595C33.9699 48.8658 32.9972 49.4149 32.1958 49.2754C31.6482 49.1796 31.1515 48.7459 30.8313 48.3988C30.575 48.1211 30.5832 47.813 30.6111 47.6542C30.639 47.4953 30.7357 47.2026 31.071 47.0284C31.4246 46.8446 31.9177 46.6453 32.3922 46.6453C32.4797 46.6453 32.5668 46.6522 32.6521 46.6671C33.4538 46.8073 34.1819 47.6546 34.6443 48.3595ZM71.0182 38.5749L68.1225 43.8399L63.6774 38.349C63.238 37.318 60.5709 30.7256 60.515 22.6487C61.7346 19.951 63.9562 17.8551 66.7756 16.7932C68.9349 15.9801 71.3841 17.0633 72.2346 19.2089C74.7459 25.5445 74.3026 32.6032 71.0182 38.5749Z" fill="url(#paint2_linear)"/>
<defs>
<filter id="filter0_f" x="0" y="0" width="90.3693" height="88" filterUnits="userSpaceOnUse" color-interpolation-filters="sRGB">
<feFlood flood-opacity="0" result="BackgroundImageFix"/>
<feBlend mode="normal" in="SourceGraphic" in2="BackgroundImageFix" result="shape"/>
<feGaussianBlur stdDeviation="7" result="effect1_foregroundBlur"/>
</filter>
<filter id="filter1_f" x="0" y="0" width="90.3693" height="88" filterUnits="userSpaceOnUse" color-interpolation-filters="sRGB">
<feFlood flood-opacity="0" result="BackgroundImageFix"/>
<feBlend mode="normal" in="SourceGraphic" in2="BackgroundImageFix" result="shape"/>
<feGaussianBlur stdDeviation="7" result="effect1_foregroundBlur"/>
</filter>
<filter id="filter2_f" x="13" y="13" width="64.3693" height="62" filterUnits="userSpaceOnUse" color-interpolation-filters="sRGB">
<feFlood flood-opacity="0" result="BackgroundImageFix"/>
<feBlend mode="normal" in="SourceGraphic" in2="BackgroundImageFix" result="shape"/>
<feGaussianBlur stdDeviation="0.5" result="effect1_foregroundBlur"/>
</filter>
<linearGradient id="paint0_linear" x1="76.3693" y1="14" x2="20.1571" y2="74" gradientUnits="userSpaceOnUse">
<stop stop-color="#FF2F8E"/>
<stop offset="1" stop-color="#FFB978"/>
</linearGradient>
<linearGradient id="paint1_linear" x1="76.3693" y1="14" x2="20.1571" y2="74" gradientUnits="userSpaceOnUse">
<stop stop-color="#FF2F8E"/>
<stop offset="1" stop-color="#FFB978"/>
</linearGradient>
<linearGradient id="paint2_linear" x1="76.3693" y1="14" x2="20.1571" y2="74" gradientUnits="userSpaceOnUse">
<stop stop-color="#FF2F8E"/>
<stop offset="1" stop-color="#FFB978"/>
</linearGradient>
</defs>
</svg>
